<?xml version="1.0" encoding="utf-8"?>
<!-- Generator: Adobe Illustrator 25.2.3, SVG Export Plug-In . SVG Version: 6.00 Build 0)  -->
<svg version="1.1" id="Calque_1" xmlns="http://www.w3.org/2000/svg" xmlns:xlink="http://www.w3.org/1999/xlink" x="0px" y="0px"
	 viewBox="0 0 101.7 74.5" style="enable-background:new 0 0 101.7 74.5;" xml:space="preserve">
<style type="text/css">
	.st0{fill:#154F9E;}
	.st1{fill:url(#SVGID_1_);}
	.st2{fill:url(#SVGID_2_);}
	.st3{fill:url(#SVGID_3_);}
	.st4{fill:url(#SVGID_4_);}
	.st5{fill:url(#SVGID_5_);}
	.st6{fill:url(#SVGID_6_);}
	.st7{fill:url(#SVGID_7_);}
	.st8{fill:url(#SVGID_8_);}
	.st9{fill:url(#SVGID_9_);}
	.st10{fill:url(#SVGID_10_);}
	.st11{font-family:'Lato-Bold';}
	.st12{font-size:5.7012px;}
</style>
<g>
	<path class="st0" d="M18.6,7.9c0,0.6-0.1,1.1-0.3,1.5c-0.2,0.4-0.5,0.7-0.9,1c-0.4,0.2-0.8,0.4-1.2,0.5c-0.5,0.1-1,0.2-1.5,0.2
		h-1.2v3.8h-2.4V4.8h3.6c0.5,0,1,0.1,1.5,0.2c0.5,0.1,0.9,0.3,1.2,0.5c0.3,0.2,0.6,0.6,0.8,1C18.5,6.8,18.6,7.3,18.6,7.9z M16.3,7.9
		c0-0.2,0-0.4-0.1-0.6C16,7.2,15.9,7,15.7,7c-0.2-0.1-0.3-0.1-0.5-0.2c-0.2,0-0.4,0-0.6,0h-1v2.4h1c0.2,0,0.4,0,0.6-0.1
		c0.2,0,0.4-0.1,0.5-0.2c0.2-0.1,0.3-0.2,0.4-0.4C16.2,8.3,16.3,8.1,16.3,7.9z"/>
	<path class="st0" d="M20.1,14.9V4.8h6.6v2.1h-4.3v1.9h4.1v2h-4.1v2.1h4.6v2.1H20.1z"/>
	<path class="st0" d="M34.7,14.9l-4-6.6h0l0.1,6.6h-2.3V4.8h2.7l3.9,6.6h0l-0.1-6.6h2.3v10.1H34.7z"/>
	<path class="st0" d="M43.6,6.9v8h-2.4v-8h-2.8V4.8h7.9v2.1H43.6z"/>
	<path class="st0" d="M47.5,14.9V4.8h6.6v2.1h-4.3v1.9h4.1v2h-4.1v2.1h4.6v2.1H47.5z"/>
	<path class="st0" d="M62.9,14.7c-0.6,0.3-1.4,0.4-2.2,0.4c-0.8,0-1.5-0.1-2.1-0.4c-0.6-0.3-1.2-0.6-1.7-1.1c-0.5-0.5-0.8-1-1.1-1.7
		c-0.3-0.7-0.4-1.4-0.4-2.2c0-0.8,0.1-1.5,0.4-2.2C56.1,7,56.5,6.4,57,5.9s1-0.8,1.7-1.1c0.6-0.2,1.3-0.4,2.1-0.4
		c0.7,0,1.4,0.1,2,0.4C63.5,5.1,64,5.5,64.5,6l-1.6,1.7c-0.2-0.3-0.5-0.5-0.9-0.7c-0.4-0.2-0.7-0.2-1.1-0.2c-0.4,0-0.8,0.1-1.1,0.2
		c-0.3,0.2-0.6,0.4-0.9,0.6c-0.2,0.3-0.4,0.6-0.6,1C58.1,8.9,58,9.4,58,9.8c0,0.5,0.1,0.9,0.2,1.3c0.1,0.4,0.3,0.7,0.6,1
		c0.2,0.3,0.5,0.5,0.9,0.6c0.3,0.2,0.7,0.2,1.1,0.2c0.5,0,0.9-0.1,1.2-0.3c0.4-0.2,0.6-0.4,0.8-0.7l1.7,1.6
		C64.1,14,63.6,14.4,62.9,14.7z"/>
	<path class="st0" d="M75.6,9.8c0,0.8-0.1,1.5-0.4,2.2c-0.3,0.7-0.6,1.2-1.1,1.7c-0.5,0.5-1,0.8-1.7,1.1c-0.7,0.3-1.4,0.4-2.1,0.4
		c-0.8,0-1.5-0.1-2.1-0.4c-0.7-0.3-1.2-0.6-1.7-1.1c-0.5-0.5-0.8-1-1.1-1.7c-0.3-0.7-0.4-1.4-0.4-2.2c0-0.8,0.1-1.5,0.4-2.2
		c0.3-0.7,0.6-1.2,1.1-1.7c0.5-0.5,1-0.8,1.7-1.1c0.7-0.2,1.4-0.4,2.1-0.4c0.8,0,1.5,0.1,2.1,0.4c0.7,0.2,1.2,0.6,1.7,1.1
		c0.5,0.5,0.8,1,1.1,1.7C75.5,8.2,75.6,9,75.6,9.8z M73.1,9.8c0-0.4-0.1-0.8-0.2-1.2c-0.1-0.4-0.3-0.7-0.6-1
		c-0.2-0.3-0.5-0.5-0.9-0.6c-0.3-0.2-0.7-0.2-1.1-0.2c-0.4,0-0.8,0.1-1.1,0.2c-0.3,0.2-0.6,0.4-0.9,0.6c-0.2,0.3-0.4,0.6-0.6,1
		c-0.1,0.4-0.2,0.8-0.2,1.2c0,0.5,0.1,0.9,0.2,1.3c0.1,0.4,0.3,0.7,0.6,1c0.2,0.3,0.5,0.5,0.9,0.6c0.3,0.2,0.7,0.2,1.1,0.2
		c0.4,0,0.8-0.1,1.1-0.2c0.3-0.2,0.6-0.4,0.9-0.6c0.2-0.3,0.4-0.6,0.6-1C73,10.6,73.1,10.2,73.1,9.8z M71.2,4l-0.9-1.2L69.3,4h-1.8
		l1.7-2.1h2.1L73,4H71.2z"/>
	<path class="st0" d="M81,6.9v8h-2.4v-8h-2.8V4.8h7.9v2.1H81z"/>
	<path class="st0" d="M84.8,14.9V4.8h6.6v2.1h-4.3v1.9h4.1v2h-4.1v2.1h4.6v2.1H84.8z"/>
</g>
<radialGradient id="SVGID_1_" cx="41.152" cy="64.9553" r="39.0585" gradientUnits="userSpaceOnUse">
	<stop  offset="0.2004" style="stop-color:#FFCF00"/>
	<stop  offset="1" style="stop-color:#E52521"/>
</radialGradient>
<path class="st1" d="M55.8,59.2c0,0.1-27.6,2.7-43.8,13.2c-0.1,0-3.9-5.2-3.9-5.2s9.1-10.6,15.3-19.7c3.3-4.9,5.8-9.3,5.7-11.4
	c0.1-3-2.3-5.4-5.3-5.5c-3-0.1-5.5,2.3-5.5,5.3c0,1.8,0.8,3.3,2,4.4l-3.7,4.9c-0.1,0-0.1-0.1-0.2-0.1c-2.7-2.2-4.4-5.6-4.3-9.3
	c0.1-6.4,5.5-11.5,11.8-11.3c6.4,0.1,11.5,5.4,11.3,11.8c0,0,1.5,7-16.2,27.2C19.1,63.5,39.3,57.9,55.8,59.2z"/>
<path class="st0" d="M94.4,69.7c-2.7-1.9-11.2-5.5-11.2-5.5l-1.3,8.3l0.2-8.6C77.4,61.8,56.6,59,56.6,59s-2.5-2.4-2.6-2.3
	c3.9-3.3,7-6,9.3-8.3c3.7-3.6,5.8-6.1,6.9-7.8c0.5-0.8,0.9-1.4,1-1.9c0.1-0.4,0.2-0.9,0.2-1.3c0-0.1,0-0.1,0-0.2l0,0
	c0-3-2.3-5.5-5.3-5.5c-3-0.1-5.5,2.3-5.6,5.3c0,1.6,0.7,3.1,1.8,4.2l-4.3,4.5c-2.3-2.2-3.8-5.3-3.7-8.8c0.1-6.4,5.5-11.5,11.9-11.4
	c6.4,0.1,11.5,5.5,11.4,11.9c0,0.3,0,0.5,0,0.8c-0.1,1.3-0.4,2.5-0.9,3.6c-0.2,0.5-0.5,1.1-0.9,1.6c0,0,0,0,0,0
	c-3.7,6.2-12.1,12.4-12.1,12.5C74.5,58.4,82,62.3,82,62.3L81,35.5l-2.8,0.3l2.7-9.3L90.9,26c0,0-7.2,37.2-7.2,37.1
	C86.4,64.4,93.7,69.2,94.4,69.7z"/>
<radialGradient id="SVGID_2_" cx="42.5008" cy="31.2151" r="3.4863" gradientTransform="matrix(0.9997 2.314911e-02 -2.314911e-02 0.9997 1.0622 -2.5773)" gradientUnits="userSpaceOnUse">
	<stop  offset="0" style="stop-color:#F4E600"/>
	<stop  offset="1" style="stop-color:#E52521"/>
</radialGradient>
<path class="st2" d="M42.2,26.1c-0.4-1.1-1.1-2.3-2-3.6c3.3,4.2,4.8,7.3,5.4,9.7c-0.5,0.2-0.9,0.4-1.4,0.6c-0.8,0.3-1.6,0.5-2.5,0.5
	C42.9,31.3,43.4,29.1,42.2,26.1C42.2,26.1,42.2,26.1,42.2,26.1z"/>
<radialGradient id="SVGID_3_" cx="45.2229" cy="51.7245" r="11.0535" gradientTransform="matrix(0.9997 2.314911e-02 -2.314911e-02 0.9997 1.0622 -2.5773)" gradientUnits="userSpaceOnUse">
	<stop  offset="0" style="stop-color:#F4E600"/>
	<stop  offset="1" style="stop-color:#E52521"/>
</radialGradient>
<path class="st3" d="M46.6,58.8c-6.5,0.3-12.5-4.4-13.4-10.5c-1-6.6,4.3-9.8,7.4-13.6c0.1,0,0.2,0,0.3,0c1.3,0.1,2.2,0,3.1-0.3
	c0.6-0.2,1.2-0.4,1.7-0.6c0.3,5.9-5.8,7.8-4.9,14.1c1.1,7.6,8.7,8.7,13.1,5.7c1.9-1.3,3.2-3.5,2.9-6.2C57.5,53.3,53,58.4,46.6,58.8z
	"/>
<radialGradient id="SVGID_4_" cx="44.9769" cy="28.769" r="4.2517" gradientTransform="matrix(0.9997 2.314911e-02 -2.314911e-02 0.9997 1.0622 -2.5773)" gradientUnits="userSpaceOnUse">
	<stop  offset="0" style="stop-color:#F4E600"/>
	<stop  offset="1" style="stop-color:#E52521"/>
</radialGradient>
<path class="st4" d="M42.1,23.6c-0.3-0.3-0.5-0.5-0.8-0.7c3.5,2.8,6.2,5.6,8.2,8.2c-0.8,0.1-1.5,0.2-2.1,0.5c-0.1,0-0.3,0.1-0.4,0.2
	C46.5,29.1,45,26.3,42.1,23.6z"/>
<radialGradient id="SVGID_5_" cx="49.8869" cy="51.1743" r="15.4698" gradientUnits="userSpaceOnUse">
	<stop  offset="0" style="stop-color:#F4E600"/>
	<stop  offset="1" style="stop-color:#E52521"/>
</radialGradient>
<path class="st5" d="M53.6,48.2c-0.1,0.2-0.2,0.4-0.3,0.5c-1.3,2.1-2.8,3.1-4.3,3.3c0,0,0,0,0,0c-4.3,0.7-8.4-4.6-5.7-8.3
	c1.8-2.5,4.1-6.2,3.9-10.5c0.2-0.1,0.4-0.1,0.6-0.2c0.8-0.2,1.6-0.4,2.7-0.4c0.1,0,0.1,0,0.2,0C55.3,39.5,55.2,45.3,53.6,48.2z"/>
<radialGradient id="SVGID_6_" cx="40.9703" cy="25.2012" r="6.6464" gradientTransform="matrix(0.9997 2.314911e-02 -2.314911e-02 0.9997 1.0622 -2.5773)" gradientUnits="userSpaceOnUse">
	<stop  offset="0" style="stop-color:#F4E600"/>
	<stop  offset="1" style="stop-color:#E52521"/>
</radialGradient>
<path class="st6" d="M47.4,31.4c-0.7-2.5-2.3-5.1-5.3-7.9c-0.3-0.3-0.5-0.5-0.8-0.7c3.5,2.8,6.2,5.6,8.2,8.2
	C48.7,31,48,31.2,47.4,31.4z"/>
<radialGradient id="SVGID_7_" cx="55.8152" cy="47.5515" r="14.3277" gradientUnits="userSpaceOnUse">
	<stop  offset="0" style="stop-color:#F4E600"/>
	<stop  offset="1" style="stop-color:#E52521"/>
</radialGradient>
<path class="st7" d="M53.6,48.2c-0.1,0.2-0.2,0.4-0.3,0.5C52,50.9,50.4,51.9,49,52c0,0,0,0,0,0c-3.8,0.4-6.9-4.9-4.2-8.5
	c1.8-2.5,3.7-6.2,3-10.5c0.8-0.2,1.6-0.4,2.7-0.4c0.1,0,0.1,0,0.2,0C55.3,39.5,55.2,45.3,53.6,48.2z"/>
<radialGradient id="SVGID_8_" cx="40.1552" cy="27.7083" r="1.5594" gradientTransform="matrix(0.9997 2.314911e-02 -2.314911e-02 0.9997 1.0622 -2.5773)" gradientUnits="userSpaceOnUse">
	<stop  offset="0" style="stop-color:#F4E600"/>
	<stop  offset="1" style="stop-color:#E52521"/>
</radialGradient>
<path class="st8" d="M42.2,26.1c-0.5-1.1-1.2-2.3-2-3.6C41.1,23.8,41.8,25,42.2,26.1z"/>
<radialGradient id="SVGID_9_" cx="41.9509" cy="34.957" r="1.8522" gradientTransform="matrix(0.9997 2.314911e-02 -2.314911e-02 0.9997 1.0622 -2.5773)" gradientUnits="userSpaceOnUse">
	<stop  offset="0" style="stop-color:#F4E600"/>
	<stop  offset="1" style="stop-color:#E52521"/>
</radialGradient>
<path class="st9" d="M42.2,26.1c1.4,2.8,1.9,5,1.9,6.7c-0.8,0.3-1.6,0.5-2.5,0.5C42.9,31.3,43.4,29.1,42.2,26.1z"/>
<radialGradient id="SVGID_10_" cx="57.447" cy="61.6952" r="29.8489" gradientTransform="matrix(0.9997 2.314911e-02 -2.314911e-02 0.9997 1.0622 -2.5773)" gradientUnits="userSpaceOnUse">
	<stop  offset="0" style="stop-color:#F4E600"/>
	<stop  offset="1" style="stop-color:#E52521"/>
</radialGradient>
<path class="st10" d="M46.6,58.8c-6.5,0.3-12.5-4.4-13.4-10.5c-1-6.6,4.3-9.8,7.4-13.6c0.1,0,0.2,0,0.3,0c1.3,0.1,2.2,0,3.1-0.3
	c-1,5.4-7.1,6.9-6.2,13c1.4,9.9,11.1,10.1,16.1,6.1c2-1.6,3.2-3.7,2.9-6.3c0,0,0,0,0,0C57.5,53.3,53,58.4,46.6,58.8z"/>
<text transform="matrix(1 0 0 1 11.1831 21.9084)" class="st11 st12">Assemblées de  Dieu du Sénégal</text>
</svg>
