<?xml version="1.0" encoding="utf-8"?>
<!-- Generator: Adobe Illustrator 25.2.3, SVG Export Plug-In . SVG Version: 6.00 Build 0)  -->
<svg version="1.1" id="Calque_1" xmlns="http://www.w3.org/2000/svg" xmlns:xlink="http://www.w3.org/1999/xlink" x="0px" y="0px"
	 viewBox="0 0 304.7 74.5" style="enable-background:new 0 0 304.7 74.5;" xml:space="preserve">
<style type="text/css">
	.st0{fill:#FFFFFF;}
	.st1{font-family:'MyriadPro-Bold';}
	.st2{font-size:18.2092px;}
	.st3{fill:none;stroke:#FFFFFF;stroke-width:2;stroke-miterlimit:10;}
	.st4{font-family:'BebasNeueBold';}
	.st5{font-size:7.3834px;}
</style>
<g>
	<text transform="matrix(1 0 0 1 95.1263 30.3642)"><tspan x="0" y="0" class="st0 st1 st2">ÉGLISE DES ASSEMBLÉES</tspan><tspan x="0" y="21.9" class="st0 st1 st2">DE DIEU DU DAKAR</tspan></text>
	<path class="st0" d="M57.7,19.2C46.5,19.1,35.2,19,24,19c-4.3,0-8.6,0.2-12.8,0.5v0.9c2.1,0.1,4.3,0.2,6.4,0.2
		c6.1,0.1,12.2,0.2,18.3,0.3c7.5,0,14.9,0,22.4-0.1c2.1,0,4.1-0.1,6.2-0.2v-1.2C62.2,19.3,59.9,19.2,57.7,19.2z"/>
	<path class="st0" d="M43.4,44.2c0.1-0.4,0.3-0.8,0.3-1.1c0-3.5,0-7-0.2-10.4c0-0.6-0.7-1.3-1.1-2c0.8-0.6,1.8-1.4,2.9-2.1
		c0.2-0.1,0.5,0,0.8,0.1c0.5,0.2,1,0.5,1.6,0.6c1.9,0.1,3.8,0.1,5.6,0.2c0.7,0.1,1.6,0.3,2.1,0.8c4.9,4.2,5,12.9-1.9,16.1
		c-1.4,0.7-3.1,0.8-4.7,0.9c-1.7,0.2-3.4,0.1-5.1,0c-1.7-0.1-3.1-0.6-3.7-2.5c-0.2-0.8-0.7-1.5-1.1-2.1c-0.2-0.3-0.6-0.5-0.9-0.5
		c-1.4-0.1-2.7-0.1-4.1,0c-0.4,0-0.8,0.4-1.1,0.7c-1,1.2-1.8,2.6-2.9,3.6c-1.5,1.4-3.9,1.3-5.6,0.2c-0.8-0.6-1.2-1.4-1.1-2.4
		c0.2-1.2,1-2.2,2.1-2.6c-0.1,0.5-0.2,1-0.4,1.4c-0.3,1.3,0,1.7,1.3,1.9c1.7,0.2,3.3-0.7,4.6-2.8c-0.1-0.1-0.4-0.1-0.4-0.2
		c-0.1-0.4-0.2-0.9-0.1-1.3c0-0.1,0.6-0.1,0.8-0.3c0.5-0.3,1.3-0.5,1.5-1c0.9-1.8,1.7-3.6,2.5-5.5c0.1-0.3-0.1-0.9-0.3-1.3
		c-0.3-0.5-0.3-0.9,0-1.3c0.3-0.3,0.5-0.7,0.8-1c0.7-1,0.9-1,1.8-0.1c1.3,1.3,2,2.9,2.6,4.5c0.8,2.4,1.5,4.9,2.2,7.3
		c0.2,0.7,0.6,1.4,0.9,2.1C43.1,44.2,43.3,44.2,43.4,44.2z M47.1,45.2c1.5-0.1,3.1-0.1,4.6-0.3c1.3-0.1,2-0.9,2.4-2.2
		c0.6-2.4,0.5-4.9-0.2-7.3c-0.5-1.6-1.5-2.5-3.1-2.8c-0.6-0.1-1.2-0.1-1.8-0.2c-0.8-0.1-1.1,0.2-1.1,1c0.1,2.7,0.1,5.4,0.1,8
		C48,42.7,47.9,44,47.1,45.2z M37.9,40.4c-0.7-1.9-1.3-3.6-1.9-5.3c-0.1,0-0.1,0-0.2,0.1c-0.6,1.7-1.1,3.5-1.7,5.3
		C35.3,40.4,36.5,40.4,37.9,40.4z"/>
	<path class="st0" d="M23.9,30.6c1.5-2,3.7-2.4,6-2.5c0.7,0,0.9,0.2,0.9,0.9c0,2.4,0,4.7,0,7.1c0,0.7-0.3,0.9-1,1
		c-1.2,0.2-2.5,0.4-3.6,0.9c-0.8,0.3-1.3,1.2-1.9,1.9c-0.2,0.2-0.3,0.4-0.5,0.5c-0.1,0-0.4-0.2-0.5-0.3c-0.9-2.3-3-2.6-5.1-2.9
		c-0.2,0-0.4,0-0.6,0c-0.6,0-0.9-0.3-0.9-0.9c0-2.4,0-4.9,0-7.3c0-0.5,0.1-0.9,0.7-0.8c1.4,0.3,2.9,0.5,4.3,1
		C22.5,29.3,23.1,30,23.9,30.6z M24.2,38.3c1.6-1.4,3.3-1.8,5.1-2c0.3,0,0.6-0.5,0.6-0.8c0.1-2,0.1-4,0-6c0-0.2-0.4-0.6-0.6-0.6
		c-1.1,0.2-2.2,0.4-3.3,0.8c-1,0.4-1.8,1.2-1.9,2.4C24.2,34.1,24.2,36.1,24.2,38.3z M23.4,38.3c0-2.2,0.1-4.1,0-6c0-0.7-0.5-1.5-1-2
		c-1.1-1.1-2.6-1.4-4.1-1.4c-0.2,0-0.7,0.4-0.7,0.6c-0.1,2-0.1,4,0,6c0,0.2,0.4,0.7,0.6,0.7C20,36.4,21.8,36.8,23.4,38.3z"/>
	<path class="st0" d="M18.7,49.8c12.7,3.3,25.4,3.3,38.1,0.1C44.1,53.6,31.4,53.6,18.7,49.8z"/>
	<path class="st0" d="M29,55.9c5.9,1.4,11.7,1.6,17.7,0.3C44,57.7,32.6,57.5,29,55.9z"/>
	<path class="st3" d="M64.4,9.7v31.6C64,55.6,52.2,67.1,37.8,67.1c-14.4,0-26.2-11.5-26.6-25.8V9.7H64.4z"/>
	<text transform="matrix(1 0 0 1 14.6116 17.4008)" class="st0 st4 st5">ASSEMBLÉES DE DIEU</text>
	<circle class="st0" cx="81.1" cy="37.3" r="4.9"/>
</g>
</svg>
